<mxfile host="app.diagrams.net" modified="2023-10-07T16:55:36.827Z" agent="Mozilla/5.0 (Macintosh; Intel Mac OS X 10_15_7) AppleWebKit/605.1.15 (KHTML, like Gecko) Version/16.6 Safari/605.1.15" etag="Zz50Yif4TmmrkRAlWJqx" version="22.0.4" type="github">
  <diagram name="Page-1" id="_Vgb9JAo8r92jsutBCuS">
    <mxGraphModel dx="606" dy="552" grid="1" gridSize="10" guides="1" tooltips="1" connect="1" arrows="1" fold="1" page="1" pageScale="1" pageWidth="850" pageHeight="1100" math="0" shadow="0">
      <root>
        <mxCell id="0" />
        <mxCell id="1" parent="0" />
        <mxCell id="adP3Fn6gAqeoGZsMluHC-1" value="" style="verticalLabelPosition=bottom;shadow=0;dashed=0;align=center;fillColor=strokeColor;html=1;verticalAlign=top;strokeWidth=1;shape=mxgraph.electrical.miscellaneous.monocell_battery;" vertex="1" parent="1">
          <mxGeometry x="230" y="230" width="100" height="60" as="geometry" />
        </mxCell>
        <mxCell id="adP3Fn6gAqeoGZsMluHC-3" value="" style="ellipse;whiteSpace=wrap;html=1;aspect=fixed;fillColor=#FFB570;strokeColor=#d79b00;" vertex="1" parent="1">
          <mxGeometry x="242" y="110" width="80" height="80" as="geometry" />
        </mxCell>
        <mxCell id="adP3Fn6gAqeoGZsMluHC-4" value="" style="shape=or;whiteSpace=wrap;html=1;fillColor=#FFB570;strokeColor=#d79b00;" vertex="1" parent="1">
          <mxGeometry x="80" y="110" width="140" height="80" as="geometry" />
        </mxCell>
        <mxCell id="adP3Fn6gAqeoGZsMluHC-5" value="" style="shape=or;whiteSpace=wrap;html=1;direction=west;fillColor=#FFB570;strokeColor=#d79b00;" vertex="1" parent="1">
          <mxGeometry x="340" y="110" width="140" height="80" as="geometry" />
        </mxCell>
        <mxCell id="adP3Fn6gAqeoGZsMluHC-8" style="edgeStyle=orthogonalEdgeStyle;rounded=0;orthogonalLoop=1;jettySize=auto;html=1;exitX=0;exitY=0.5;exitDx=0;exitDy=0;exitPerimeter=0;entryX=0;entryY=0.5;entryDx=0;entryDy=0;entryPerimeter=0;endArrow=none;endFill=0;" edge="1" parent="1" source="adP3Fn6gAqeoGZsMluHC-1" target="adP3Fn6gAqeoGZsMluHC-4">
          <mxGeometry relative="1" as="geometry">
            <Array as="points">
              <mxPoint x="40" y="260" />
              <mxPoint x="40" y="150" />
            </Array>
          </mxGeometry>
        </mxCell>
        <mxCell id="adP3Fn6gAqeoGZsMluHC-9" style="edgeStyle=orthogonalEdgeStyle;rounded=0;orthogonalLoop=1;jettySize=auto;html=1;exitX=1;exitY=0.5;exitDx=0;exitDy=0;exitPerimeter=0;entryX=0;entryY=0.5;entryDx=0;entryDy=0;entryPerimeter=0;endArrow=none;endFill=0;" edge="1" parent="1" source="adP3Fn6gAqeoGZsMluHC-1" target="adP3Fn6gAqeoGZsMluHC-5">
          <mxGeometry relative="1" as="geometry">
            <Array as="points">
              <mxPoint x="520" y="260" />
              <mxPoint x="520" y="150" />
            </Array>
          </mxGeometry>
        </mxCell>
        <mxCell id="adP3Fn6gAqeoGZsMluHC-12" value="" style="shape=image;html=1;verticalAlign=top;verticalLabelPosition=bottom;labelBackgroundColor=#ffffff;imageAspect=0;aspect=fixed;image=https://cdn2.iconfinder.com/data/icons/essential-web-5/50/point-right-arrow-curve-forward-128.png;rotation=30;dashed=1;" vertex="1" parent="1">
          <mxGeometry x="200" y="80" width="58" height="58" as="geometry" />
        </mxCell>
        <mxCell id="adP3Fn6gAqeoGZsMluHC-13" value="" style="shape=image;html=1;verticalAlign=top;verticalLabelPosition=bottom;labelBackgroundColor=#ffffff;imageAspect=0;aspect=fixed;image=https://cdn2.iconfinder.com/data/icons/essential-web-5/50/point-right-arrow-curve-forward-128.png;rotation=30;dashed=1;" vertex="1" parent="1">
          <mxGeometry x="320" y="80" width="58" height="58" as="geometry" />
        </mxCell>
        <mxCell id="adP3Fn6gAqeoGZsMluHC-14" value="e" style="text;html=1;strokeColor=none;fillColor=none;align=center;verticalAlign=middle;whiteSpace=wrap;rounded=0;" vertex="1" parent="1">
          <mxGeometry x="150" y="135" width="60" height="30" as="geometry" />
        </mxCell>
        <mxCell id="adP3Fn6gAqeoGZsMluHC-15" value="e" style="text;html=1;strokeColor=none;fillColor=none;align=center;verticalAlign=middle;whiteSpace=wrap;rounded=0;" vertex="1" parent="1">
          <mxGeometry x="252" y="138" width="60" height="30" as="geometry" />
        </mxCell>
        <mxCell id="adP3Fn6gAqeoGZsMluHC-16" value="e" style="text;html=1;strokeColor=none;fillColor=none;align=center;verticalAlign=middle;whiteSpace=wrap;rounded=0;" vertex="1" parent="1">
          <mxGeometry x="340" y="138" width="60" height="30" as="geometry" />
        </mxCell>
        <mxCell id="adP3Fn6gAqeoGZsMluHC-17" value="" style="ellipse;whiteSpace=wrap;html=1;aspect=fixed;" vertex="1" parent="1">
          <mxGeometry x="190" y="140" width="5" height="5" as="geometry" />
        </mxCell>
        <mxCell id="adP3Fn6gAqeoGZsMluHC-18" value="" style="ellipse;whiteSpace=wrap;html=1;aspect=fixed;" vertex="1" parent="1">
          <mxGeometry x="283.5" y="143" width="5" height="5" as="geometry" />
        </mxCell>
        <mxCell id="adP3Fn6gAqeoGZsMluHC-21" value="" style="ellipse;whiteSpace=wrap;html=1;aspect=fixed;" vertex="1" parent="1">
          <mxGeometry x="375" y="143" width="5" height="5" as="geometry" />
        </mxCell>
        <mxCell id="adP3Fn6gAqeoGZsMluHC-22" value="tunneling barriers" style="text;html=1;strokeColor=none;fillColor=none;align=center;verticalAlign=middle;whiteSpace=wrap;rounded=0;" vertex="1" parent="1">
          <mxGeometry x="254" y="192" width="60" height="30" as="geometry" />
        </mxCell>
        <mxCell id="adP3Fn6gAqeoGZsMluHC-23" value="" style="endArrow=classic;html=1;rounded=0;" edge="1" parent="1">
          <mxGeometry width="50" height="50" relative="1" as="geometry">
            <mxPoint x="310" y="200" as="sourcePoint" />
            <mxPoint x="334" y="160" as="targetPoint" />
          </mxGeometry>
        </mxCell>
        <mxCell id="adP3Fn6gAqeoGZsMluHC-25" value="" style="endArrow=classic;html=1;rounded=0;exitX=0;exitY=0.5;exitDx=0;exitDy=0;" edge="1" parent="1" source="adP3Fn6gAqeoGZsMluHC-22">
          <mxGeometry width="50" height="50" relative="1" as="geometry">
            <mxPoint x="207" y="203" as="sourcePoint" />
            <mxPoint x="231" y="163" as="targetPoint" />
          </mxGeometry>
        </mxCell>
        <mxCell id="adP3Fn6gAqeoGZsMluHC-26" value="V" style="text;html=1;strokeColor=none;fillColor=none;align=center;verticalAlign=middle;whiteSpace=wrap;rounded=0;" vertex="1" parent="1">
          <mxGeometry x="250" y="290" width="60" height="30" as="geometry" />
        </mxCell>
      </root>
    </mxGraphModel>
  </diagram>
</mxfile>
